<svg width="274" height="262" viewBox="0 0 274 262" fill="none" xmlns="http://www.w3.org/2000/svg">
<g filter="url(#filter0_di_195_85)">
<path d="M171.639 203.628C171.639 198.893 175.492 195.054 180.244 195.054H186.699V201.485C186.699 206.22 182.846 210.058 178.093 210.058C174.528 210.058 171.639 207.179 171.639 203.628Z" fill="#0500FF"/>
<path d="M141.518 239.639C141.518 234.903 145.371 231.065 150.124 231.065H156.578V237.495C156.578 242.23 152.725 246.069 147.972 246.069C144.408 246.069 141.518 243.19 141.518 239.639Z" fill="#0500FF"/>
<path d="M114.41 203.628C114.41 198.893 118.263 195.054 123.015 195.054H129.47V201.485C129.47 206.22 125.617 210.058 120.864 210.058C117.299 210.058 114.41 207.179 114.41 203.628Z" fill="#0500FF"/>
<path d="M84.2892 239.639C84.2892 234.903 88.1421 231.065 92.895 231.065H99.3494V237.495C99.3494 242.23 95.4964 246.069 90.7435 246.069C87.1789 246.069 84.2892 243.19 84.2892 239.639Z" fill="#0500FF"/>
<path d="M57.1807 203.628C57.1807 198.893 61.0337 195.054 65.7866 195.054H72.241V201.485C72.241 206.22 68.388 210.058 63.6351 210.058C60.0705 210.058 57.1807 207.179 57.1807 203.628Z" fill="#0500FF"/>
<path d="M165.614 72.0183C165.614 106.822 137.295 135.037 102.361 135.037C67.4278 135.037 39.1084 106.822 39.1084 72.0183C39.1084 37.2143 67.4278 9 102.361 9C137.295 9 165.614 37.2143 165.614 72.0183Z" fill="#FBCA1C"/>
<path d="M165.614 72.0183C165.614 106.822 137.295 135.037 102.361 135.037C67.4278 135.037 39.1084 106.822 39.1084 72.0183C39.1084 37.2143 67.4278 9 102.361 9C137.295 9 165.614 37.2143 165.614 72.0183Z" fill="url(#paint0_radial_195_85)" fill-opacity="0.2"/>
<path d="M225.768 111.03C225.826 110.037 225.855 109.036 225.855 108.029C225.855 79.8541 202.93 57.014 174.651 57.014C161.043 57.014 148.674 62.3026 139.504 70.9295C134.865 69.6826 129.986 69.0175 124.952 69.0175C106.743 69.0175 90.5738 77.7191 80.4053 91.1762C77.3058 90.4229 74.0672 90.0236 70.7349 90.0236C48.2775 90.0236 30.0723 108.161 30.0723 130.535C30.0723 130.64 30.0727 130.744 30.0734 130.848C30.0727 130.921 30.0723 130.994 30.0723 131.068C30.0723 158.12 52.0839 180.05 79.2367 180.05H156.578C194.839 180.05 225.855 149.148 225.855 111.03H225.768Z" fill="white"/>
<path d="M225.768 111.03C225.826 110.037 225.855 109.036 225.855 108.029C225.855 79.8541 202.93 57.014 174.651 57.014C161.043 57.014 148.674 62.3026 139.504 70.9295C134.865 69.6826 129.986 69.0175 124.952 69.0175C106.743 69.0175 90.5738 77.7191 80.4053 91.1762C77.3058 90.4229 74.0672 90.0236 70.7349 90.0236C48.2775 90.0236 30.0723 108.161 30.0723 130.535C30.0723 130.64 30.0727 130.744 30.0734 130.848C30.0727 130.921 30.0723 130.994 30.0723 131.068C30.0723 158.12 52.0839 180.05 79.2367 180.05H156.578C194.839 180.05 225.855 149.148 225.855 111.03H225.768Z" fill="url(#paint1_radial_195_85)" fill-opacity="0.2"/>
<path d="M174.651 124.534C174.651 100.502 194.204 81.021 218.325 81.021H225.855C245.818 81.021 262 97.1434 262 117.031C262 136.919 245.818 153.042 225.855 153.042H198.747C185.439 153.042 174.651 142.294 174.651 129.035V124.534Z" fill="white"/>
<path d="M174.651 124.534C174.651 100.502 194.204 81.021 218.325 81.021H225.855C245.818 81.021 262 97.1434 262 117.031C262 136.919 245.818 153.042 225.855 153.042H198.747C185.439 153.042 174.651 142.294 174.651 129.035V124.534Z" fill="url(#paint2_radial_195_85)" fill-opacity="0.2"/>
<path d="M72.241 153.042C72.241 136.469 58.7556 123.033 42.1205 123.033H37.6024C23.4626 123.033 12 134.453 12 148.541C12 162.628 23.4626 174.048 37.6024 174.048H55.1727C64.5992 174.048 72.241 166.435 72.241 157.043V153.042Z" fill="white"/>
<path d="M72.241 153.042C72.241 136.469 58.7556 123.033 42.1205 123.033H37.6024C23.4626 123.033 12 134.453 12 148.541C12 162.628 23.4626 174.048 37.6024 174.048H55.1727C64.5992 174.048 72.241 166.435 72.241 157.043V153.042Z" fill="url(#paint3_radial_195_85)" fill-opacity="0.2"/>
</g>
<defs>
<filter id="filter0_di_195_85" x="0" y="0" width="274" height="261.069" filterUnits="userSpaceOnUse" color-interpolation-filters="sRGB">
<feFlood flood-opacity="0" result="BackgroundImageFix"/>
<feColorMatrix in="SourceAlpha" type="matrix" values="0 0 0 0 0 0 0 0 0 0 0 0 0 0 0 0 0 0 127 0" result="hardAlpha"/>
<feOffset dy="3"/>
<feGaussianBlur stdDeviation="6"/>
<feComposite in2="hardAlpha" operator="out"/>
<feColorMatrix type="matrix" values="0 0 0 0 0.301961 0 0 0 0 0.368627 0 0 0 0 0.435294 0 0 0 0.14 0"/>
<feBlend mode="normal" in2="BackgroundImageFix" result="effect1_dropShadow_195_85"/>
<feBlend mode="normal" in="SourceGraphic" in2="effect1_dropShadow_195_85" result="shape"/>
<feColorMatrix in="SourceAlpha" type="matrix" values="0 0 0 0 0 0 0 0 0 0 0 0 0 0 0 0 0 0 127 0" result="hardAlpha"/>
<feOffset/>
<feGaussianBlur stdDeviation="2"/>
<feComposite in2="hardAlpha" operator="arithmetic" k2="-1" k3="1"/>
<feColorMatrix type="matrix" values="0 0 0 0 0.301961 0 0 0 0 0.368627 0 0 0 0 0.435294 0 0 0 0.11 0"/>
<feBlend mode="normal" in2="shape" result="effect2_innerShadow_195_85"/>
</filter>
<radialGradient id="paint0_radial_195_85" cx="0" cy="0" r="1" gradientUnits="userSpaceOnUse" gradientTransform="translate(107.238 82.3785) rotate(49.2121) scale(164.012 115.632)">
<stop stop-color="#FBCA1C"/>
<stop offset="1" stop-color="#E4750E"/>
</radialGradient>
<radialGradient id="paint1_radial_195_85" cx="0" cy="0" r="1" gradientUnits="userSpaceOnUse" gradientTransform="translate(187 32.1287) rotate(112.434) scale(272.119 339.623)">
<stop stop-opacity="0"/>
<stop offset="1" stop-color="#4D5E6F"/>
</radialGradient>
<radialGradient id="paint2_radial_195_85" cx="0" cy="0" r="1" gradientUnits="userSpaceOnUse" gradientTransform="translate(-18.1725 -89.7787) rotate(53.3365) scale(418.681 274.727)">
<stop stop-color="#4D5E6F" stop-opacity="0"/>
<stop offset="1" stop-color="#4D5E6F" stop-opacity="0.54"/>
</radialGradient>
<radialGradient id="paint3_radial_195_85" cx="0" cy="0" r="1" gradientUnits="userSpaceOnUse" gradientTransform="translate(42.1205 111.03) rotate(90) scale(69.0201 81.5025)">
<stop stop-color="#4D5E6F" stop-opacity="0"/>
<stop offset="1" stop-color="#4D5E6F" stop-opacity="0.62"/>
</radialGradient>
</defs>
</svg>
